<svg xmlns="http://www.w3.org/2000/svg" width="25" height="24" fill="none" viewBox="0 0 25 24" id="alpine-linux">
  <rect width="24" height="24" x=".463" fill="url(#paint0_linear_302_4670)" rx="8"></rect>
  <path fill="#fff" fill-rule="evenodd" d="M8 5L4 11.9091L8 18.8182H16L20 11.9091L16 5H8ZM6.08185 13.0831L10.6226 8.63423L15.1634 13.0831C14.9009 13.3524 14.3487 13.683 13.8953 13.6149C13.2817 13.5229 10.6226 10.7309 10.6226 10.7309C10.6226 10.7309 7.96364 13.5229 7.35001 13.6149C6.89655 13.683 6.34435 13.3524 6.08185 13.0831ZM13.8135 9.26349L17.7816 13.1513C17.5522 13.3866 16.8279 13.6754 16.4316 13.616C15.8953 13.5356 13.8135 11.2321 13.8135 11.2321L12.8191 10.2377L13.8135 9.26349ZM9.80447 12.0809V13.6161C9.27331 13.5493 9.03857 13.4281 8.72044 13.1513L9.80447 12.0809Z" clip-rule="evenodd"></path>
  <defs>
    <linearGradient id="paint0_linear_302_4670" x1=".463" x2="24.463" y1="12" y2="12" gradientUnits="userSpaceOnUse">
      <stop stop-color="#ED6D6B"></stop>
      <stop offset="1" stop-color="#F0B076"></stop>
    </linearGradient>
  </defs>
</svg>
